LG_Stand_to_Walk04																		
version=1																		
nRows=98																		
nColumns=19																		
inDegrees=yes																		
endheader																		
time	ground_force2_vx	ground_force2_vy	ground_force2_vz	ground_force2_px	ground_force2_py	ground_force2_pz	ground_torque2_x	ground_torque2_y	ground_torque2_z	ground_force1_vx	ground_force1_vy	ground_force1_vz	ground_force1_px	ground_force1_py	ground_force1_pz	ground_torque1_x	ground_torque1_y	ground_torque1_z
2.49	-27.878712	369.646423	5.336332	0.190125	0	-0.367584	-2.00E-06	1.391239	2.00E-06	0	0	0	-0.13	0	0.305	0	0	0
2.491	-27.878712	369.646423	5.571445	0.19084	0	-0.368008	-2.00E-06	1.391239	2.00E-06	0	0	0	-0.13	0	0.305	0	0	0
2.492	-27.878712	370.835205	5.571445	0.19013	0	-0.368008	3.00E-06	1.413346	6.00E-06	0	0	0	-0.13	0	0.305	0	0	0
2.493	-28.34798	371.19281	5.963099	0.19074	0	-0.367388	1.00E-05	1.387724	6.00E-06	0	0	0	-0.13	0	0.305	0	0	0
2.494	-28.34798	371.707703	6.04163	0.19013	0	-0.366927	1.10E-05	1.368796	6.00E-06	0	0	0	-0.13	0	0.305	0	0	0
2.495	-28.34798	371.715454	6.354992	0.190715	0	-0.366927	1.00E-05	1.368796	2.00E-06	0	0	0	-0.13	0	0.305	0	0	0
2.496	-28.34798	371.715454	6.354992	0.190715	0	-0.367229	1.20E-05	1.281901	4.00E-06	0	0	0	-0.13	0	0.305	0	0	0
2.497	-28.190836	370.508484	6.589943	0.190715	0	-0.367229	9.00E-06	1.406415	3.00E-06	0	0	0	-0.13	0	0.305	0	0	0
2.498	-28.422947	370.508484	6.119761	0.190537	0	-0.367851	1.20E-05	1.421219	3.00E-06	0	0	0	-0.13	0	0.305	0	0	0
2.499	-28.035856	370.667419	6.19825	0.190511	0	-0.367837	9.00E-06	1.421219	3.00E-06	0	0	0	-0.13	0	0.305	0	0	0
2.5	-28.191559	372.045959	6.119761	0.190511	0	-0.368501	-1.00E-06	1.4429	3.00E-06	0	0	0	-0.13	0	0.305	0	0	0
2.501	-28.191559	371.024597	6.19825	0.190535	0	-0.367837	-1.00E-06	1.427491	4.00E-06	0	0	0	-0.13	0	0.305	0	0	0
2.502	-28.191559	371.024597	6.589943	0.190737	0	-0.368388	0.00E+00	1.427491	5.00E-06	0	0	0	-0.13	0	0.305	0	0	0
2.503	-28.191559	371.024597	6.589943	0.190535	0	-0.367541	6.00E-06	1.348043	5.00E-06	0	0	0	-0.13	0	0.305	0	0	0
2.504	-28.191559	369.29538	6.825054	0.19014	0	-0.368388	3.00E-06	1.348043	6.00E-06	0	0	0	-0.13	0	0.305	0	0	0
2.505	-28.422224	369.289215	6.433443	0.189995	0	-0.368634	4.00E-06	1.352189	6.00E-06	0	0	0	-0.13	0	0.305	0	0	0
2.506	-28.815086	369.289215	6.746805	0.189995	0	-0.369046	4.00E-06	1.429373	6.00E-06	0	0	0	-0.13	0	0.305	0	0	0
2.507	-28.422224	369.980804	6.746805	0.190661	0	-0.368818	5.00E-06	1.398542	6.00E-06	0	0	0	-0.13	0	0.305	0	0	0
2.508	-27.798697	370.33374	6.746805	0.190843	0	-0.368818	7.00E-06	1.398542	5.00E-06	0	0	0	-0.13	0	0.305	0	0	0
2.509	-27.798697	369.980804	6.746645	0.190843	0	-0.36852	7.00E-06	1.350145	5.00E-06	0	0	0	-0.13	0	0.305	0	0	0
2.51	-27.878712	369.292297	6.746645	0.190696	0	-0.36852	4.00E-06	1.350145	4.00E-06	0	0	0	-0.13	0	0.305	0	0	0
2.511	-27.878712	369.292297	6.433161	0.190439	0	-0.368948	4.00E-06	1.412955	3.00E-06	0	0	0	-0.13	0	0.305	0	0	0
2.512	-27.877991	369.466309	6.433161	0.190646	0	-0.368948	4.00E-06	1.412955	3.00E-06	0	0	0	-0.13	0	0.305	0	0	0
2.513	-27.876547	370.150909	6.355112	0.190439	0	-0.367387	2.00E-06	1.308747	3.00E-06	0	0	0	-0.13	0	0.305	0	0	0
2.514	-27.877991	369.466309	6.354712	0.190646	0	-0.367387	2.00E-06	1.308747	3.00E-06	0	0	0	-0.13	0	0.305	0	0	0
2.515	-27.252295	369.807617	6.354712	0.190624	0	-0.368227	1.10E-05	1.351423	3.00E-06	0	0	0	-0.13	0	0.305	0	0	0
2.516	-27.878712	369.807617	6.589985	0.190652	0	-0.368227	1.10E-05	1.351423	5.00E-06	0	0	0	-0.13	0	0.305	0	0	0
2.517	-27.252295	369.823486	6.589985	0.190624	0	-0.368227	5.00E-06	1.276449	5.00E-06	0	0	0	-0.13	0	0.305	0	0	0
2.518	-27.800861	369.823486	6.668356	0.190647	0	-0.368345	5.00E-06	1.276449	5.00E-06	0	0	0	-0.13	0	0.305	0	0	0
2.519	-27.800861	371.013397	6.119921	0.190324	0	-0.368404	1.20E-05	1.412565	5.00E-06	0	0	0	-0.13	0	0.305	0	0	0
2.52	-27.877991	370.334534	6.19817	0.190647	0	-0.368465	1.20E-05	1.430755	2.00E-06	0	0	0	-0.13	0	0.305	0	0	0
2.521	-27.877991	371.02536	6.19817	0.190851	0	-0.368465	9.00E-06	1.412565	2.00E-06	0	0	0	-0.13	0	0.305	0	0	0
2.522	-28.266521	371.02536	6.825054	0.190851	0	-0.367923	4.00E-06	1.257998	5.00E-06	0	0	0	-0.13	0	0.305	0	0	0
2.523	-27.955841	371.52832	6.825054	0.190723	0	-0.367923	4.00E-06	1.257998	5.00E-06	0	0	0	-0.13	0	0.305	0	0	0
2.524	-27.955841	371.52832	6.746685	0.190723	0	-0.367923	4.00E-06	1.37803	3.00E-06	0	0	0	-0.13	0	0.305	0	0	0
2.525	-27.955841	370.847931	6.668556	0.190131	0	-0.368671	5.00E-06	1.37803	3.00E-06	0	0	0	-0.13	0	0.305	0	0	0
2.526	-28.190836	370.310211	6.668556	0.190128	0	-0.369796	9.00E-06	1.37803	5.00E-06	0	0	0	-0.13	0	0.305	0	0	0
2.527	-28.264357	370.310211	6.668314	0.190128	0	-0.369796	9.00E-06	1.355231	5.00E-06	0	0	0	-0.13	0	0.305	0	0	0
2.528	-28.264357	369.454681	6.668314	0.190261	0	-0.369262	1.30E-05	1.403573	5.00E-06	0	0	0	-0.13	0	0.305	0	0	0
2.529	-28.264357	369.805298	6.746725	0.1904	0	-0.369262	1.30E-05	1.379019	6.00E-06	0	0	0	-0.13	0	0.305	0	0	0
2.53	-28.267244	369.805298	6.825176	0.1904	0	-0.369193	1.00E-06	1.379019	6.00E-06	0	0	0	-0.13	0	0.305	0	0	0
2.531	-28.267244	369.805298	6.903307	0.1904	0	-0.369133	0.00E+00	1.376408	6.00E-06	0	0	0	-0.13	0	0.305	0	0	0
2.532	-28.267244	372.388519	6.903507	0.189765	0	-0.369133	0	1.376408	3.00E-06	0	0	0	-0.13	0	0.305	0	0	0
2.533	-28.108656	368.936615	7.216951	0.189765	0	-0.370239	0.00E+00	1.352791	3.00E-06	0	0	0	-0.13	0	0.305	0	0	0
2.534	-27.721565	368.942078	7.216951	0.190292	0	-0.370239	1.10E-05	1.314007	3.00E-06	0	0	0	-0.13	0	0.305	0	0	0
2.535	-27.485847	368.942078	7.13858	0.190292	0	-0.369087	2.00E-06	1.281395	4.00E-06	0	0	0	-0.13	0	0.305	0	0	0
2.536	-27.485847	368.942078	7.13858	0.190148	0	-0.368677	8.00E-06	1.281395	4.00E-06	0	0	0	-0.13	0	0.305	0	0	0
2.537	-27.800861	367.735901	7.373611	0.189755	0	-0.368677	8.00E-06	1.378649	6.00E-06	0	0	0	-0.13	0	0.305	0	0	0
2.538	-27.800861	367.735901	7.373611	0.189755	0	-0.368511	8.00E-06	1.401519	5.00E-06	0	0	0	-0.13	0	0.305	0	0	0
2.539	-27.800861	367.917572	7.373571	0.189853	0	-0.368511	1.00E-06	1.434525	5.00E-06	0	0	0	-0.13	0	0.305	0	0	0
2.54	-27.489458	369.119141	6.981838	0.190188	0	-0.368355	1.00E-06	1.434525	5.00E-06	0	0	0	-0.13	0	0.305	0	0	0
2.541	-27.564421	369.110992	6.903547	0.190455	0	-0.369002	5.00E-06	1.303921	4.00E-06	0	0	0	-0.13	0	0.305	0	0	0
2.542	-27.564421	369.119141	6.903547	0.190455	0	-0.368641	5.00E-06	1.303921	3.00E-06	0	0	0	-0.13	0	0.305	0	0	0
2.543	-27.797974	369.63678	7.216829	0.190455	0	-0.368641	5.00E-06	1.315613	3.00E-06	0	0	0	-0.13	0	0.305	0	0	0
2.544	-27.797974	370.14975	7.29516	0.190176	0	-0.368641	7.00E-06	1.370271	3.00E-06	0	0	0	-0.13	0	0.305	0	0	0
2.545	-27.799416	369.63678	7.37365	0.190466	0	-0.36897	7.00E-06	1.389713	2.00E-06	0	0	0	-0.13	0	0.305	0	0	0
2.546	-28.114428	370.485718	7.37365	0.190176	0	-0.36897	7.00E-06	1.389713	2.00E-06	0	0	0	-0.13	0	0.305	0	0	0
2.547	-28.114428	370.13623	7.21707	0.190466	0	-0.36897	7.00E-06	1.308201	2.00E-06	0	0	0	-0.13	0	0.305	0	0	0
2.548	-27.877268	370.13623	6.981998	0.190083	0	-0.36957	6.00E-06	1.308201	3.00E-06	0	0	0	-0.13	0	0.305	0	0	0
2.549	-27.877268	370.13623	7.21707	0.190449	0	-0.36957	7.00E-06	1.326433	2.00E-06	0	0	0	-0.13	0	0.305	0	0	0
2.55	-28.188671	370.481873	7.608603	0.189967	0	-0.368894	7.00E-06	1.326433	3.00E-06	0	0	0	-0.13	0	0.305	0	0	0
2.551	-28.188671	370.481873	7.608603	0.190449	0	-0.368514	8.00E-06	1.418495	4.00E-06	0	0	0	-0.13	0	0.305	0	0	0
2.552	-28.110821	370.318726	7.216909	0.189967	0	-0.368514	1.00E-05	1.346416	4.00E-06	0	0	0	-0.13	0	0.305	0	0	0
2.553	-27.72373	369.101379	7.216909	0.1905	0	-0.369422	1.00E-05	1.346416	4.00E-06	0	0	0	-0.13	0	0.305	0	0	0
2.554	-28.035133	368.756897	7.138659	0.19005	0	-0.370029	1.00E-05	1.346416	4.00E-06	0	0	0	-0.13	0	0.305	0	0	0
2.555	-28.032249	368.244659	7.687134	0.19005	0	-0.370029	5.00E-06	1.318886	4.00E-06	0	0	0	-0.13	0	0.305	0	0	0
2.556	-28.032249	367.727417	7.530474	0.19005	0	-0.369401	5.00E-06	1.318886	4.00E-06	0	0	0	-0.13	0	0.305	0	0	0
2.557	-27.879433	367.727417	7.608845	0.189633	0	-0.36905	5.00E-06	1.318886	3.00E-06	0	0	0	-0.13	0	0.305	0	0	0
2.558	-27.563698	367.727417	7.608845	0.189633	0	-0.36905	5.00E-06	1.335676	3.00E-06	0	0	0	-0.13	0	0.305	0	0	0
2.559	-27.563698	367.556549	7.608845	0.189633	0	-0.369269	6.00E-06	1.348764	3.00E-06	0	0	0	-0.13	0	0.305	0	0	0
2.56	-27.563698	367.556549	7.530554	0.189839	0	-0.369466	1.00E-05	1.335676	3.00E-06	0	0	0	-0.13	0	0.305	0	0	0
2.561	-27.410885	367.556549	7.530554	0.189839	0	-0.369269	1.20E-05	1.323629	6.00E-06	0	0	0	-0.13	0	0.305	0	0	0
2.562	-27.800861	367.907166	7.530554	0.189839	0	-0.369343	1.20E-05	1.274683	6.00E-06	0	0	0	-0.13	0	0.305	0	0	0
2.563	-27.801582	366.863037	7.217112	0.189733	0	-0.369004	9.00E-06	1.274683	1.00E-06	0	0	0	-0.13	0	0.305	0	0	0
2.564	-27.801582	367.210541	7.217112	0.189724	0	-0.369343	9.00E-06	1.293379	1.00E-06	0	0	0	-0.13	0	0.305	0	0	0
2.565	-27.64588	367.210541	7.217112	0.189724	0	-0.368971	8.00E-06	1.351696	2.00E-06	0	0	0	-0.13	0	0.305	0	0	0
2.566	-27.642273	367.388367	7.608805	0.19004	0	-0.368899	8.00E-06	1.293379	2.00E-06	0	0	0	-0.13	0	0.305	0	0	0
2.567	-27.64588	368.591064	7.373692	0.19004	0	-0.368689	8.00E-06	1.502786	2.00E-06	0	0	0	-0.13	0	0.305	0	0	0
2.568	-27.643715	368.765381	7.373692	0.190608	0	-0.368899	7.00E-06	1.390719	5.00E-06	0	0	0	-0.13	0	0.305	0	0	0
2.569	-27.643715	368.765381	7.373692	0.189977	0	-0.369125	7.00E-06	1.390719	6.00E-06	0	0	0	-0.13	0	0.305	0	0	0
2.57	-27.643715	368.937408	7.452021	0.190098	0	-0.369125	3.00E-06	1.390719	5.00E-06	0	0	0	-0.13	0	0.305	0	0	0
2.571	-28.114428	368.067596	7.452021	0.189859	0	-0.369125	3.00E-06	1.394189	5.00E-06	0	0	0	-0.13	0	0.305	0	0	0
2.572	-28.114428	368.068024	7.530634	0.190098	0	-0.369359	3.00E-06	1.394189	3.00E-06	0	0	0	-0.13	0	0.305	0	0	0
2.573	-27.880154	368.068024	7.29524	0.190243	0	-0.370386	3.00E-06	1.395722	3.00E-06	0	0	0	-0.13	0	0.305	0	0	0
2.574	-27.876547	368.068024	7.530634	0.190243	0	-0.370036	3.00E-06	1.391415	3.00E-06	0	0	0	-0.13	0	0.305	0	0	0
2.575	-27.721565	368.755341	7.373772	0.190164	0	-0.370036	3.00E-06	1.391415	4.00E-06	0	0	0	-0.13	0	0.305	0	0	0
2.576	-27.330868	368.755341	7.687014	0.190052	0	-0.36981	8.00E-06	1.29586	4.00E-06	0	0	0	-0.13	0	0.305	0	0	0
2.577	-27.330868	368.755341	8.000698	0.190031	0	-0.36981	6.00E-06	1.22699	4.00E-06	0	0	0	-0.13	0	0.305	0	0	0
2.578	-27.564421	368.417847	8.000698	0.190052	0	-0.369828	6.00E-06	1.22699	4.00E-06	0	0	0	-0.13	0	0.305	0	0	0
2.579	-27.642273	366.860718	7.765585	0.189619	0	-0.369998	5.00E-06	1.302741	5.00E-06	0	0	0	-0.13	0	0.305	0	0	0
2.58	-27.642273	367.027344	7.765585	0.189619	0	-0.369828	4.00E-06	1.325364	5.00E-06	0	0	0	-0.13	0	0.305	0	0	0
2.581	-27.407997	367.027344	8.000576	0.189619	0	-0.369671	4.00E-06	1.326587	5.00E-06	0	0	0	-0.13	0	0.305	0	0	0
2.582	-27.407997	367.027344	8.000576	0.189516	0	-0.369671	3.00E-06	1.326587	6.00E-06	0	0	0	-0.13	0	0.305	0	0	0
2.583	-27.407997	365.823486	8.078787	0.189635	0	-0.369977	3.00E-06	1.323904	2.00E-06	0	0	0	-0.13	0	0.305	0	0	0
2.584	-27.408718	365.823486	8.000456	0.189708	0	-0.369977	9.00E-06	1.323904	4.00E-06	0	0	0	-0.13	0	0.305	0	0	0
2.585	-27.565865	365.823486	8.078869	0.189993	0	-0.369767	9.00E-06	1.323904	4.00E-06	0	0	0	-0.13	0	0.305	0	0	0
2.586	-27.565865	366.520081	8.000616	0.189993	0	-0.369689	1.00E-05	1.333951	4.00E-06	0	0	0	-0.13	0	0.305	0	0	0
2.587	-27.642273	367.561188	8.000616	0.19001	0	-0.369293	1.00E-05	1.247031	3.00E-06	0	0	0	-0.13	0	0.305	0	0	0
